<?xml version="1.0" encoding="UTF-8" standalone="no"?>
<!-- Created with Inkscape (http://www.inkscape.org/) -->

<svg
   width="233.26024mm"
   height="73.083481mm"
   viewBox="0 0 233.26024 73.083481"
   version="1.1"
   id="svg56"
   inkscape:version="1.1 (c4e8f9e, 2021-05-24)"
   sodipodi:docname="Rent Arventure with out slogan.svg"
   inkscape:export-filename="/Users/sinisa/WEB bootcamp/Portfolio/project files/Rent Arventure with out slogan.png"
   inkscape:export-xdpi="96"
   inkscape:export-ydpi="96"
   xmlns:inkscape="http://www.inkscape.org/namespaces/inkscape"
   xmlns:sodipodi="http://sodipodi.sourceforge.net/DTD/sodipodi-0.dtd"
   xmlns="http://www.w3.org/2000/svg"
   xmlns:svg="http://www.w3.org/2000/svg">
  <sodipodi:namedview
     id="namedview58"
     pagecolor="#ffffff"
     bordercolor="#666666"
     borderopacity="1.0"
     inkscape:pageshadow="2"
     inkscape:pageopacity="0.0"
     inkscape:pagecheckerboard="0"
     inkscape:document-units="mm"
     showgrid="false"
     fit-margin-top="0"
     fit-margin-left="0"
     fit-margin-right="0"
     fit-margin-bottom="0"
     inkscape:zoom="0.66453543"
     inkscape:cx="264.84668"
     inkscape:cy="-339.3348"
     inkscape:window-width="2095"
     inkscape:window-height="1317"
     inkscape:window-x="1680"
     inkscape:window-y="25"
     inkscape:window-maximized="0"
     inkscape:current-layer="layer1" />
  <defs
     id="defs53" />
  <g
     inkscape:label="Layer 1"
     inkscape:groupmode="layer"
     id="layer1"
     transform="translate(-19.934583,-125.50442)">
    <g
       id="g26781"
       transform="translate(-12.220811,57.515896)">
      <path
         style="fill:#a3a5a7;stroke-width:0.264583"
         d="m 74.824599,140.98721 c -0.236291,-0.0829 0.676587,-0.36926 2.028619,-0.63639 6.7818,-1.33994 18.831139,-4.86931 24.286362,-7.11373 0.3638,-0.14968 0.8528,-0.31013 1.08667,-0.35656 1.582,-0.31408 10.7782,-4.51508 15.79783,-7.21675 l 3.98155,-2.14295 h 4.23574 c 2.32965,0 4.30066,0.10506 4.38002,0.23346 0.17463,0.28256 -10.30091,5.49944 -14.97934,7.4598 -1.8463,0.77363 -3.28642,1.52066 -3.20026,1.66006 0.0862,0.13939 0.0227,0.17067 -0.14098,0.0695 -0.16369,-0.10117 -1.87872,0.40715 -3.81119,1.12958 -6.38314,2.38628 -15.828516,4.94243 -22.034414,5.96304 -4.421309,0.72712 -10.7853,1.24745 -11.630607,0.95093 z m -23.355503,-1.24556 c 0.257431,-0.0671 0.614618,-0.0627 0.79375,0.01 0.179131,0.0725 -0.03149,0.12737 -0.468057,0.12197 -0.436562,-0.005 -0.583124,-0.0647 -0.325693,-0.13177 z m 7.937499,0 c 0.257432,-0.0671 0.614619,-0.0627 0.79375,0.01 0.179131,0.0725 -0.03149,0.12737 -0.468056,0.12197 -0.436562,-0.005 -0.583125,-0.0647 -0.325694,-0.13177 z m -10.43954,-0.26197 c 0.190996,-0.0764 0.419199,-0.067 0.507118,0.0209 0.08792,0.0879 -0.06835,0.15046 -0.347266,0.13897 -0.308224,-0.0127 -0.370919,-0.0754 -0.159852,-0.15985 z m 13.758333,0 c 0.190995,-0.0764 0.419198,-0.067 0.507119,0.0209 0.08792,0.0879 -0.06835,0.15046 -0.347265,0.13897 -0.308227,-0.0127 -0.37092,-0.0754 -0.159854,-0.15985 z m 2.116667,-0.26459 c 0.190995,-0.0764 0.419198,-0.067 0.507119,0.0209 0.08792,0.0879 -0.06835,0.15045 -0.347266,0.13896 -0.308226,-0.0127 -0.370919,-0.0754 -0.159853,-0.15985 z m 1.852083,-0.26458 c 0.190995,-0.0764 0.419198,-0.067 0.507119,0.0209 0.08792,0.0879 -0.06835,0.15045 -0.347265,0.13896 -0.308227,-0.0127 -0.37092,-0.0754 -0.159854,-0.15985 z m -30.656301,-5.04478 -0.911798,-0.99219 0.992188,0.9118 c 0.923506,0.84868 1.113839,1.07258 0.911798,1.07258 -0.04421,0 -0.490698,-0.44649 -0.992188,-0.99219 z m 25.352837,-3.69664 c 0.475549,-0.0589 1.189924,-0.0577 1.5875,0.003 0.397576,0.0604 0.0085,0.10855 -0.864635,0.10706 -0.873125,-0.002 -1.198414,-0.0509 -0.722865,-0.10976 z m 3.704167,0 c 0.475549,-0.0589 1.189924,-0.0577 1.5875,0.003 0.397576,0.0604 0.0085,0.10855 -0.864635,0.10706 -0.873125,-0.002 -1.198414,-0.0509 -0.722865,-0.10976 z m 4.757761,-0.2489 c 0.181901,-0.0734 0.479557,-0.0734 0.661458,0 0.181901,0.0734 0.03307,0.13345 -0.330729,0.13345 -0.363802,0 -0.51263,-0.06 -0.330729,-0.13345 z m -13.477214,-0.2701 c 0.190996,-0.0764 0.4192,-0.067 0.507118,0.0209 0.08792,0.0879 -0.06835,0.15045 -0.347265,0.13896 -0.308225,-0.0127 -0.37092,-0.0754 -0.159853,-0.15985 z m 16.139584,0 c 0.190995,-0.0764 0.419198,-0.067 0.507119,0.0209 0.08792,0.0879 -0.06835,0.15045 -0.347266,0.13896 -0.308226,-0.0127 -0.370919,-0.0754 -0.159853,-0.15985 z m 2.116667,-0.26458 c 0.190994,-0.0764 0.419197,-0.067 0.507119,0.0209 0.08792,0.0879 -0.06835,0.15045 -0.347266,0.13897 -0.308226,-0.0127 -0.370919,-0.0754 -0.159853,-0.15986 z m -29.882057,-4.7802 c -0.329108,-0.41964 -0.319749,-0.429 0.0999,-0.0999 0.254661,0.19972 0.463021,0.40808 0.463021,0.46302 0,0.21776 -0.217273,0.0776 -0.562916,-0.36313 z m -12.594188,-0.85989 c 0,-0.65485 0.0516,-0.92274 0.114662,-0.59532 0.06306,0.32743 0.06306,0.86321 0,1.19063 -0.06306,0.32742 -0.114662,0.0595 -0.114662,-0.59531 z m 213.325696,-3.68593 c -0.0837,-0.13546 -0.0312,-0.32108 0.11668,-0.41249 0.14789,-0.0914 0.2689,-0.085 0.2689,0.0141 0,0.0992 0.20836,0.0189 0.46302,-0.17826 0.37693,-0.29191 0.36931,-0.24874 -0.041,0.23218 -0.57213,0.67058 -0.59896,0.68202 -0.80759,0.34446 z m 2.76683,-2.7964 c 0.34177,-0.36381 0.68094,-0.66146 0.7537,-0.66146 0.0728,0 -0.14734,0.29765 -0.48912,0.66146 -0.34178,0.3638 -0.68094,0.66145 -0.7537,0.66145 -0.0728,0 0.14734,-0.29765 0.48912,-0.66145 z m -44.90799,0.21352 c 0.25743,-0.0671 0.61462,-0.0627 0.79375,0.01 0.17913,0.0725 -0.0315,0.12737 -0.46806,0.12197 -0.43656,-0.005 -0.58312,-0.0647 -0.32569,-0.13177 z m 2.90538,0.001 c 0.25466,-0.0665 0.67138,-0.0665 0.92604,0 0.25467,0.0666 0.0463,0.12101 -0.46302,0.12101 -0.50932,0 -0.71768,-0.0545 -0.46302,-0.12101 z M 59.070831,116.52499 c 0,-0.51791 0.04602,-0.94166 0.102262,-0.94166 0.21727,0 0.326757,1.61817 0.118207,1.74706 -0.121258,0.0749 -0.220469,-0.28749 -0.220469,-0.8054 z m 9.302192,0.38126 c 0,-0.3638 0.06005,-0.51263 0.133453,-0.33073 0.0734,0.1819 0.0734,0.47956 0,0.66146 -0.0734,0.1819 -0.133453,0.0331 -0.133453,-0.33073 z m 10.583333,0 c 0,-0.3638 0.06006,-0.51263 0.133454,-0.33073 0.0734,0.1819 0.0734,0.47956 0,0.66146 -0.0734,0.1819 -0.133454,0.0331 -0.133454,-0.33073 z m 2.136275,-0.26458 c 0,-0.50933 0.05445,-0.71769 0.121002,-0.46302 0.06655,0.25466 0.06655,0.67138 0,0.92604 -0.06655,0.25466 -0.121002,0.0463 -0.121002,-0.46302 z m 22.781739,-1.05834 c 0,-1.0914 0.0467,-1.53789 0.10379,-0.99218 0.0571,0.5457 0.0571,1.43867 0,1.98437 -0.0571,0.5457 -0.10379,0.0992 -0.10379,-0.99219 z m 25.37243,1.05834 c 0,-0.50933 0.0545,-0.71769 0.121,-0.46302 0.0666,0.25466 0.0666,0.67138 0,0.92604 -0.0665,0.25466 -0.121,0.0463 -0.121,-0.46302 z m 7.80997,0.61852 c 0.1819,-0.0734 0.47956,-0.0734 0.66146,0 0.1819,0.0734 0.0331,0.13345 -0.33073,0.13345 -0.3638,0 -0.51263,-0.0601 -0.33073,-0.13345 z m 33.9942,-0.61852 c 0,-0.50933 0.0545,-0.71769 0.121,-0.46302 0.0666,0.25466 0.0666,0.67138 0,0.92604 -0.0665,0.25466 -0.121,0.0463 -0.121,-0.46302 z m 22.78174,-1.05834 c 0,-1.0914 0.0467,-1.53789 0.10378,-0.99218 0.0571,0.5457 0.0571,1.43867 0,1.98437 -0.0571,0.5457 -0.10378,0.0992 -0.10378,-0.99219 z m 23.98812,-0.66145 c 0,-1.43096 0.0515,-2.55024 0.11445,-2.4873 0.18841,0.18841 0.23992,4.73467 0.0557,4.91886 -0.0936,0.0936 -0.17017,-1.00061 -0.17017,-2.43156 z m 19.91582,1.4552 c 0,-0.65484 0.0516,-0.92273 0.11466,-0.59531 0.0631,0.32742 0.0631,0.8632 0,1.19063 -0.0631,0.32742 -0.11466,0.0595 -0.11466,-0.59532 z m -36.71499,0.5322 c -0.0927,-0.14998 0.0135,-0.19434 0.24897,-0.10398 0.45837,0.17589 0.54224,0.36553 0.16165,0.36553 -0.13693,0 -0.32171,-0.1177 -0.41062,-0.26155 z M 99.603662,116.24479 c 0.0054,-0.43656 0.06469,-0.58312 0.131773,-0.32569 0.06708,0.25743 0.06267,0.61462 -0.0098,0.79375 -0.07248,0.17913 -0.127362,-0.0315 -0.12197,-0.46806 z m 89.958338,0 c 0.005,-0.43656 0.0647,-0.58312 0.13177,-0.32569 0.0671,0.25743 0.0627,0.61462 -0.01,0.79375 -0.0725,0.17913 -0.12736,-0.0315 -0.12197,-0.46806 z m 37.57083,0 c 0.005,-0.43656 0.0647,-0.58312 0.13177,-0.32569 0.0671,0.25743 0.0627,0.61462 -0.01,0.79375 -0.0725,0.17913 -0.12736,-0.0315 -0.12197,-0.46806 z M 55.163465,115.58333 c 0,-0.50932 0.05445,-0.71768 0.121,-0.46302 0.06655,0.25466 0.06655,0.67138 0,0.92604 -0.06655,0.25467 -0.121,0.0463 -0.121,-0.46302 z m 155.249035,0.69386 c 0,-0.0549 0.20836,-0.2633 0.46302,-0.46302 0.41965,-0.32911 0.429,-0.31975 0.0999,0.0999 -0.34565,0.44073 -0.56292,0.58089 -0.56292,0.36313 z m 39.15833,-0.52917 c 0,-0.0549 0.20836,-0.2633 0.46302,-0.46302 0.41965,-0.32911 0.42901,-0.31975 0.0999,0.0999 -0.34564,0.44073 -0.56292,0.58088 -0.56292,0.36312 z M 40.634684,113.99583 c 0,-0.94588 0.04802,-1.33284 0.106712,-0.85989 0.05869,0.47294 0.05869,1.24685 0,1.71979 -0.05869,0.47294 -0.106712,0.086 -0.106712,-0.8599 z m 53.969599,0.26459 c 0,-0.80037 0.0496,-1.12779 0.110223,-0.72761 0.06062,0.40018 0.06062,1.05503 0,1.45521 -0.06062,0.40018 -0.110223,0.0728 -0.110223,-0.7276 z m 64.011267,0.52916 c 0,-0.50932 0.0544,-0.71768 0.121,-0.46302 0.0666,0.25466 0.0666,0.67138 0,0.92604 -0.0666,0.25467 -0.121,0.0463 -0.121,-0.46302 z m 25.94707,-0.52916 c 0,-0.80037 0.0496,-1.12779 0.11022,-0.72761 0.0606,0.40018 0.0606,1.05503 0,1.45521 -0.0606,0.40018 -0.11022,0.0728 -0.11022,-0.7276 z m 29.35085,0.52916 c 0,-0.50932 0.0545,-0.71768 0.121,-0.46302 0.0666,0.25466 0.0666,0.67138 0,0.92604 -0.0666,0.25467 -0.121,0.0463 -0.121,-0.46302 z m -44.77597,0.19579 c 0,-0.23186 -0.20836,-0.47602 -0.46302,-0.54257 -0.43394,-0.1134 -0.43342,-0.12293 0.008,-0.15169 0.47836,-0.0311 0.9216,0.64895 0.61969,0.95086 -0.0907,0.0907 -0.16498,-0.0247 -0.16498,-0.2566 z M 68.657215,113.99583 c 0,-0.50932 0.05445,-0.71768 0.121001,-0.46302 0.06655,0.25466 0.06655,0.67138 0,0.92604 -0.06655,0.25467 -0.121001,0.0463 -0.121001,-0.46302 z m 9.943174,0.34843 c 0.190994,-0.0764 0.419198,-0.067 0.507119,0.0209 0.08792,0.0879 -0.06835,0.15045 -0.347266,0.13896 -0.308226,-0.0127 -0.370919,-0.0754 -0.159853,-0.15985 z m 44.235031,-0.0585 c 0,-0.24207 -0.61458,-0.30532 -2.35685,-0.24254 -1.29627,0.0467 -2.30127,-0.004 -2.23334,-0.11351 0.19456,-0.31262 4.53586,-0.2358 4.73336,0.0838 0.0959,0.1552 0.10294,0.35364 0.0156,0.44097 -0.0873,0.0873 -0.15878,0.0114 -0.15878,-0.16867 z m 10.66261,-1.08366 c 0,-0.80036 0.0496,-1.12778 0.11023,-0.7276 0.0606,0.40018 0.0606,1.05503 0,1.45521 -0.0606,0.40018 -0.11023,0.0728 -0.11023,-0.72761 z m 1.5794,1.13957 c 0.25743,-0.0671 0.61462,-0.0627 0.79375,0.01 0.17913,0.0725 -0.0315,0.12736 -0.46806,0.12197 -0.43656,-0.005 -0.58312,-0.0647 -0.32569,-0.13177 z m 27.78213,-0.87498 c 0,-0.65485 0.0516,-0.92274 0.11466,-0.59532 0.0631,0.32743 0.0631,0.86321 0,1.19063 -0.0631,0.32742 -0.11466,0.0595 -0.11466,-0.59531 z m 74.22625,0.87759 c 0.19099,-0.0764 0.4192,-0.067 0.50712,0.0209 0.0879,0.0879 -0.0684,0.15045 -0.34727,0.13896 -0.30823,-0.0127 -0.37092,-0.0754 -0.15985,-0.15985 z M 129.52928,112.9375 c 0,-0.80036 0.0496,-1.12779 0.11023,-0.7276 0.0606,0.40018 0.0606,1.05502 0,1.4552 -0.0606,0.40019 -0.11023,0.0728 -0.11023,-0.7276 z m 6.79989,1.21893 c 0,-0.0572 0.18477,-0.17489 0.41061,-0.26155 0.23546,-0.0904 0.34166,-0.046 0.24897,0.10398 -0.15538,0.25141 -0.65958,0.37186 -0.65958,0.15757 z m 114.56458,0.004 c 0,-0.0549 0.20836,-0.2633 0.46302,-0.46302 0.41965,-0.3291 0.429,-0.31975 0.0999,0.0999 -0.34565,0.44072 -0.56292,0.58087 -0.56292,0.36311 z M 227.4179,112.9375 c 0,-0.65484 0.0516,-0.92273 0.11466,-0.59531 0.0631,0.32742 0.0631,0.8632 0,1.19062 -0.0631,0.32742 -0.11466,0.0595 -0.11466,-0.59531 z M 81.371505,112.54063 c 0.0021,-0.72761 0.05337,-0.99386 0.114186,-0.59168 0.06082,0.40218 0.05919,0.9975 -0.0036,1.32292 -0.0628,0.32542 -0.112559,-0.004 -0.110575,-0.73124 z m 18.517222,0.13229 c 0,-0.65485 0.0516,-0.92274 0.114663,-0.59532 0.0631,0.32743 0.0631,0.86321 0,1.19063 -0.06306,0.32742 -0.114663,0.0595 -0.114663,-0.59531 z m 71.441113,-0.13229 c 0.002,-0.72761 0.0534,-0.99386 0.11419,-0.59168 0.0608,0.40218 0.0592,0.9975 -0.004,1.32292 -0.0628,0.32542 -0.11256,-0.004 -0.11058,-0.73124 z m 18.51722,0.13229 c 0,-0.65485 0.0516,-0.92274 0.11466,-0.59532 0.0631,0.32743 0.0631,0.86321 0,1.19063 -0.0631,0.32742 -0.11466,0.0595 -0.11466,-0.59531 z m 8.94466,0.63941 c 0.0127,-0.30823 0.0754,-0.37092 0.15985,-0.15986 0.0764,0.191 0.067,0.4192 -0.0209,0.50712 -0.0879,0.0879 -0.15046,-0.0683 -0.13897,-0.34726 z m 13.00508,-0.37483 c 0,-0.50932 0.0545,-0.71768 0.121,-0.46302 0.0666,0.25466 0.0666,0.67138 0,0.92604 -0.0666,0.25466 -0.121,0.0463 -0.121,-0.46302 z M 72.850053,112.78316 c 0.0127,-0.30823 0.07539,-0.37092 0.159851,-0.15985 0.07643,0.19099 0.06703,0.4192 -0.02088,0.50712 -0.08792,0.0879 -0.150452,-0.0684 -0.138964,-0.34727 z m 12.231932,-1.03628 c 0.0016,-0.87313 0.05088,-1.19842 0.109765,-0.72287 0.05889,0.47555 0.05767,1.18992 -0.0027,1.5875 -0.06037,0.39758 -0.108551,0.008 -0.107066,-0.86463 z m 89.958335,0 c 0.002,-0.87313 0.0509,-1.19842 0.10976,-0.72287 0.0589,0.47555 0.0577,1.18992 -0.003,1.5875 -0.0604,0.39758 -0.10856,0.008 -0.10707,-0.86463 z M 55.448651,111.48229 c 0.0015,-0.87312 0.05088,-1.19841 0.109765,-0.72286 0.05889,0.47555 0.05767,1.18992 -0.0027,1.5875 -0.06037,0.39757 -0.10855,0.008 -0.107065,-0.86464 z m 152.095209,0.66146 c 0,-0.3638 0.0601,-0.51263 0.13345,-0.33073 0.0734,0.1819 0.0734,0.47956 0,0.66146 -0.0734,0.1819 -0.13345,0.0331 -0.13345,-0.33073 z m -65.10839,-0.15434 c 0.0127,-0.30823 0.0754,-0.37092 0.15985,-0.15985 0.0764,0.19099 0.067,0.4192 -0.0209,0.50712 -0.0879,0.0879 -0.15046,-0.0684 -0.13897,-0.34727 z m 94.49675,-0.37483 c 0,-0.50932 0.0545,-0.71768 0.121,-0.46302 0.0665,0.25466 0.0665,0.67138 0,0.92604 -0.0666,0.25467 -0.121,0.0463 -0.121,-0.46302 z m -172.569722,0.1606 c 0,-0.0572 0.184777,-0.17489 0.410617,-0.26155 0.235458,-0.0904 0.341662,-0.046 0.248968,0.10398 -0.155379,0.25141 -0.659585,0.37186 -0.659585,0.15757 z m 94.538242,-1.35122 c 0.002,-0.87313 0.0509,-1.19842 0.10976,-0.72287 0.0589,0.47555 0.0577,1.18993 -0.003,1.5875 -0.0604,0.39758 -0.10855,0.008 -0.10706,-0.86463 z m 55.30663,-0.52917 c 0.001,-1.16416 0.0475,-1.6075 0.10337,-0.98519 0.0559,0.62231 0.0551,1.57481 -0.002,2.11666 -0.0568,0.54186 -0.10259,0.0327 -0.10162,-1.13147 z m 38.53846,1.88448 c 0,-0.0549 0.20836,-0.2633 0.46302,-0.46302 0.41965,-0.32911 0.42901,-0.31975 0.0999,0.0999 -0.34564,0.44073 -0.56292,0.58088 -0.56292,0.36312 z M 91.1701,110.02708 c 0,-0.94588 0.04802,-1.33284 0.106714,-0.85989 0.05869,0.47294 0.05869,1.24685 0,1.71979 -0.05869,0.47294 -0.106714,0.086 -0.106714,-0.8599 z m 89.95564,0.1323 c 0.002,-0.87313 0.0509,-1.19842 0.10976,-0.72287 0.0589,0.47555 0.0577,1.18992 -0.003,1.5875 -0.0604,0.39758 -0.10855,0.008 -0.10706,-0.86463 z m -115.175742,0.52916 c 0.341775,-0.3638 0.680939,-0.66146 0.7537,-0.66146 0.07276,0 -0.147341,0.29766 -0.489117,0.66146 -0.341775,0.3638 -0.680939,0.66146 -0.7537,0.66146 -0.07276,0 0.147341,-0.29766 0.489117,-0.66146 z m 54.309372,0.20702 c 0.40218,-0.0608 0.99749,-0.0592 1.32291,0.004 0.32542,0.0628 -0.004,0.11255 -0.73124,0.11057 -0.7276,-0.002 -0.99386,-0.0534 -0.59167,-0.11419 z m 104.17605,0.09 c 0,-0.0549 0.20836,-0.2633 0.46302,-0.46302 0.41964,-0.32911 0.429,-0.31975 0.0999,0.0999 -0.34564,0.44073 -0.56291,0.58088 -0.56291,0.36312 z M 59.417401,109.36563 c 0.0016,-0.87313 0.05088,-1.19842 0.109765,-0.72287 0.05889,0.47555 0.05767,1.18992 -0.0027,1.5875 -0.06037,0.39758 -0.10855,0.008 -0.107065,-0.86463 z m 108.957039,0.87829 c -0.0222,-0.5124 -0.19589,-0.74102 -0.626,-0.82386 l -0.59532,-0.11466 0.60362,-0.036 c 0.65559,-0.0391 0.96835,0.44893 0.77237,1.20529 -0.0832,0.32097 -0.13408,0.24503 -0.15467,-0.23073 z m 30.72236,-0.21684 c 0,-0.50932 0.0545,-0.71768 0.121,-0.46302 0.0665,0.25466 0.0665,0.67138 0,0.92604 -0.0666,0.25467 -0.121,0.0463 -0.121,-0.46302 z M 68.9451,108.96875 c 0,-0.94589 0.04802,-1.33284 0.106714,-0.8599 0.05869,0.47295 0.05869,1.24685 0,1.7198 -0.05869,0.47294 -0.106714,0.086 -0.106714,-0.8599 z m 25.920155,0.39688 c 0.0021,-0.72761 0.05337,-0.99386 0.114186,-0.59168 0.06082,0.40218 0.05919,0.9975 -0.0036,1.32292 -0.0628,0.32542 -0.112559,-0.004 -0.110575,-0.73124 z m 89.958335,0 c 0.002,-0.72761 0.0534,-0.99386 0.11419,-0.59168 0.0608,0.40218 0.0592,0.9975 -0.004,1.32292 -0.0628,0.32542 -0.11256,-0.004 -0.11058,-0.73124 z m -124.62828,0.74365 c 0.254662,-0.0665 0.67138,-0.0665 0.926042,0 0.254661,0.0666 0.0463,0.121 -0.463021,0.121 -0.509323,0 -0.717682,-0.0544 -0.463021,-0.121 z m 43.92141,-0.74365 c 0.003,-0.58209 0.0571,-0.78906 0.12041,-0.45994 0.0633,0.32912 0.0609,0.80537 -0.005,1.05833 -0.0662,0.25297 -0.118,-0.0163 -0.11506,-0.59839 z m 89.95834,0 c 0.003,-0.58209 0.0571,-0.78906 0.1204,-0.45994 0.0633,0.32912 0.0609,0.80537 -0.005,1.05833 -0.0662,0.25297 -0.11801,-0.0163 -0.11507,-0.59839 z m 13.75833,0 c 0.003,-0.58209 0.0571,-0.78906 0.12041,-0.45994 0.0633,0.32912 0.0609,0.80537 -0.005,1.05833 -0.0662,0.25297 -0.118,-0.0163 -0.11507,-0.59839 z m 11.11192,0.74365 c 0.25466,-0.0665 0.67138,-0.0665 0.92604,0 0.25467,0.0666 0.0463,0.121 -0.46302,0.121 -0.50932,0 -0.71768,-0.0544 -0.46302,-0.121 z M 62.245831,109.92719 c 0,-0.0549 0.208359,-0.2633 0.463021,-0.46302 0.419645,-0.32911 0.429003,-0.31975 0.0999,0.0999 -0.345644,0.44073 -0.562917,0.58089 -0.562917,0.36313 z m 15.478125,-0.42927 -0.79375,-0.20198 0.711989,-0.0313 c 0.391594,-0.0172 0.785574,0.0878 0.875511,0.23328 0.08994,0.14552 0.12673,0.25049 0.08176,0.23328 -0.04497,-0.0172 -0.438949,-0.1222 -0.875512,-0.23328 z m 134.342764,-0.66146 c 0.003,-0.58208 0.0571,-0.78906 0.12041,-0.45994 0.0633,0.32912 0.0609,0.80537 -0.005,1.05834 -0.0662,0.25296 -0.118,-0.0163 -0.11506,-0.5984 z m -48.91604,-0.24413 c 0.022,-0.67759 0.17147,-1.07494 0.43057,-1.14462 0.2707,-0.0728 0.29857,-0.0365 0.0877,0.11415 -0.17006,0.12149 -0.36382,0.63657 -0.43057,1.14462 -0.11626,0.8849 -0.11995,0.8801 -0.0877,-0.11415 z m 40.18479,-0.0205 c 0.003,-0.58209 0.0571,-0.78906 0.12041,-0.45994 0.0633,0.32912 0.0609,0.80537 -0.005,1.05833 -0.0662,0.25297 -0.118,-0.0163 -0.11506,-0.59839 z m 32.67547,0.75081 c 0.1819,-0.0734 0.47956,-0.0734 0.66146,0 0.1819,0.0734 0.0331,0.13345 -0.33073,0.13345 -0.36381,0 -0.51263,-0.0601 -0.33073,-0.13345 z M 67.050106,108.70417 c 0,-0.36381 0.06006,-0.51263 0.133453,-0.33073 0.0734,0.1819 0.0734,0.47955 0,0.66146 -0.0734,0.1819 -0.133453,0.0331 -0.133453,-0.33073 z m 151.102034,-0.39688 c 0.003,-0.58208 0.0571,-0.78905 0.12041,-0.45993 0.0633,0.32911 0.0609,0.80536 -0.005,1.05833 -0.0662,0.25296 -0.118,-0.0163 -0.11507,-0.5984 z m -155.09167,0.24254 c 0.0127,-0.30823 0.07539,-0.37092 0.159851,-0.15986 0.07643,0.191 0.06703,0.4192 -0.02088,0.50712 -0.08792,0.0879 -0.150453,-0.0684 -0.138964,-0.34726 z m 10.069309,-0.30868 c -0.02756,-0.65766 0.07287,-0.85895 0.42699,-0.85585 0.297426,0.003 0.35428,0.0736 0.158967,0.19844 -0.167233,0.10691 -0.359376,0.49204 -0.42699,0.85584 -0.104087,0.56005 -0.128458,0.52963 -0.158967,-0.19843 z m 8.523084,-1.38907 c 0,-1.23692 0.04558,-1.74294 0.101282,-1.12448 0.0557,0.61847 0.0557,1.6305 0,2.24896 -0.0557,0.61847 -0.101282,0.11245 -0.101282,-1.12448 z m 89.958337,0 c 0,-1.23692 0.0456,-1.74294 0.10128,-1.12448 0.0557,0.61847 0.0557,1.6305 0,2.24896 -0.0557,0.61847 -0.10128,0.11245 -0.10128,-1.12448 z m 56.09166,0 c 0,-1.23692 0.0456,-1.74294 0.10129,-1.12448 0.0557,0.61847 0.0557,1.6305 0,2.24896 -0.0557,0.61847 -0.10129,0.11245 -0.10129,-1.12448 z m -1.89295,1.19063 c 0.005,-0.43656 0.0647,-0.58313 0.13178,-0.3257 0.0671,0.25744 0.0627,0.61462 -0.01,0.79375 -0.0725,0.17914 -0.12736,-0.0315 -0.12197,-0.46805 z m -88.45616,-0.0661 c -0.32911,-0.41964 -0.31975,-0.429 0.0999,-0.0999 0.44073,0.34564 0.58089,0.56291 0.36313,0.56291 -0.0549,0 -0.2633,-0.20836 -0.46302,-0.46302 z m -7.55021,-1.65364 c 0,-1.09141 0.0467,-1.53789 0.10378,-0.99219 0.0571,0.5457 0.0571,1.43867 0,1.98437 -0.0571,0.54571 -0.10378,0.0992 -0.10378,-0.99218 z m 3.90068,1.43316 c 0.0127,-0.30823 0.0754,-0.37092 0.15985,-0.15986 0.0764,0.191 0.067,0.4192 -0.0209,0.50712 -0.0879,0.0879 -0.15046,-0.0684 -0.13897,-0.34726 z m -66.675,-0.52917 c 0.0127,-0.30823 0.07539,-0.37092 0.159851,-0.15985 0.07643,0.19099 0.06703,0.4192 -0.02088,0.50712 -0.08792,0.0879 -0.150453,-0.0684 -0.138964,-0.34727 z m 11.605739,0.27099 c 0.665991,-0.12652 0.795028,-0.28929 0.891442,-1.12448 l 0.112734,-0.97654 -0.03155,1.05833 c -0.02971,0.99664 -0.08167,1.06219 -0.891442,1.12448 -0.819984,0.0631 -0.823751,0.0593 -0.08119,-0.0818 z m 17.527567,-1.50571 0.05003,-1.65365 0.09513,1.51002 0.09513,1.51003 1.905365,0.091 1.905359,0.091 -2.050517,0.0526 -2.050521,0.0526 z m 10.338504,1.46378 c 0.40218,-0.0608 0.9975,-0.0592 1.32292,0.004 0.32542,0.0628 -0.004,0.11256 -0.73124,0.11058 -0.72761,-0.002 -0.99386,-0.0534 -0.59168,-0.11419 z m 61.97415,-0.006 c 0.43609,-0.0641 0.88075,-0.25461 0.98814,-0.42338 0.12675,-0.1992 0.19667,-0.14442 0.1993,0.15617 0.003,0.36633 -0.20313,0.45474 -0.98814,0.42338 -0.89985,-0.036 -0.9184,-0.0505 -0.1993,-0.15617 z m 17.64568,-1.45784 0.05,-1.65364 0.0951,1.51002 0.0951,1.51002 1.90536,0.091 1.90536,0.0911 -2.05052,0.0526 -2.05052,0.0526 0.05,-1.65364 z m 10.33851,1.46379 c 0.40218,-0.0608 0.99749,-0.0592 1.32291,0.004 0.32543,0.0628 -0.004,0.11256 -0.73124,0.11057 -0.7276,-0.002 -0.99386,-0.0534 -0.59167,-0.11418 z m 35.59935,0.009 c 0.191,-0.0764 0.4192,-0.067 0.50712,0.0209 0.0879,0.0879 -0.0684,0.15045 -0.34726,0.13897 -0.30823,-0.0127 -0.37092,-0.0754 -0.15986,-0.15985 z m 4.87826,-0.002 c 0.25466,-0.0665 0.67138,-0.0665 0.92604,0 0.25466,0.0666 0.0463,0.121 -0.46302,0.121 -0.50932,0 -0.71768,-0.0544 -0.46302,-0.121 z m -119.39323,-0.86039 c 0,-0.13694 0.1177,-0.32172 0.26155,-0.41062 0.14998,-0.0927 0.19434,0.0135 0.10399,0.24897 -0.1759,0.45837 -0.36554,0.54223 -0.36554,0.16165 z m 120.72206,-1.07395 c 0,-0.65485 0.0516,-0.92274 0.11466,-0.59532 0.0631,0.32743 0.0631,0.86321 0,1.19063 -0.0631,0.32742 -0.11466,0.0595 -0.11466,-0.59531 z M 95.120888,105.39688 c 0.0029,-0.58209 0.05712,-0.78906 0.120406,-0.45994 0.06329,0.32912 0.06088,0.80537 -0.0053,1.05833 -0.06622,0.25297 -0.118005,-0.0163 -0.115068,-0.59839 z m 89.958332,0 c 0.003,-0.58209 0.0571,-0.78906 0.12041,-0.45994 0.0633,0.32912 0.0609,0.80537 -0.005,1.05833 -0.0662,0.25297 -0.118,-0.0163 -0.11506,-0.59839 z m 14.2875,0 c 0.003,-0.58209 0.0571,-0.78906 0.12041,-0.45994 0.0633,0.32912 0.0609,0.80537 -0.005,1.05833 -0.0662,0.25297 -0.118,-0.0163 -0.11506,-0.59839 z m -133.185889,0.19843 c -0.329107,-0.41964 -0.319749,-0.429 0.0999,-0.0999 0.254661,0.19972 0.463021,0.40808 0.463021,0.46302 0,0.21776 -0.217273,0.0776 -0.562917,-0.36313 z m 146.135329,-0.46302 c 0.005,-0.43656 0.0647,-0.58312 0.13178,-0.32569 0.0671,0.25743 0.0627,0.61462 -0.01,0.79375 -0.0725,0.17913 -0.12736,-0.0315 -0.12197,-0.46806 z m -104.01194,-0.022 c 0.0127,-0.30822 0.0754,-0.37092 0.15985,-0.15985 0.0764,0.19099 0.067,0.4192 -0.0209,0.50712 -0.0879,0.0879 -0.15046,-0.0684 -0.13897,-0.34727 z m 89.95834,0 c 0.0127,-0.30822 0.0754,-0.37092 0.15985,-0.15985 0.0764,0.19099 0.067,0.4192 -0.0209,0.50712 -0.0879,0.0879 -0.15045,-0.0684 -0.13896,-0.34727 z m 5.29166,0 c 0.0127,-0.30822 0.0754,-0.37092 0.15985,-0.15985 0.0764,0.19099 0.067,0.4192 -0.0209,0.50712 -0.0879,0.0879 -0.15046,-0.0684 -0.13897,-0.34727 z m 4.49792,-0.26458 c 0.0127,-0.30823 0.0754,-0.37092 0.15985,-0.15985 0.0764,0.19099 0.067,0.41919 -0.0209,0.50711 -0.0879,0.0879 -0.15045,-0.0684 -0.13896,-0.34726 z M 57.155687,104.54829 c 0.329118,-0.0633 0.805368,-0.0609 1.058333,0.005 0.252966,0.0662 -0.01632,0.11801 -0.598397,0.11507 -0.582084,-0.003 -0.789055,-0.0571 -0.459936,-0.12041 z m 6.628035,0.006 c 0.190995,-0.0764 0.419198,-0.067 0.507119,0.0209 0.08792,0.0879 -0.06835,0.15045 -0.347266,0.13896 -0.308226,-0.0127 -0.370919,-0.0754 -0.159853,-0.15985 z m 9.508463,-0.0107 c 0.472943,-0.0587 1.246849,-0.0587 1.719792,0 0.472943,0.0587 0.08599,0.10672 -0.859896,0.10672 -0.945885,0 -1.332838,-0.048 -0.859896,-0.10672 z m 10.864454,0.0107 c 0.190994,-0.0764 0.419198,-0.067 0.507119,0.0209 0.08792,0.0879 -0.06835,0.15045 -0.347266,0.13896 -0.308226,-0.0127 -0.370919,-0.0754 -0.159853,-0.15985 z m 8.995833,0 c 0.190995,-0.0764 0.419198,-0.067 0.507119,0.0209 0.08792,0.0879 -0.06835,0.15045 -0.347266,0.13896 -0.308226,-0.0127 -0.370919,-0.0754 -0.159853,-0.15985 z m 7.656378,0.006 c 0.1819,-0.0734 0.47956,-0.0734 0.66146,0 0.1819,0.0734 0.0331,0.13345 -0.33073,0.13345 -0.3638,0 -0.51263,-0.06 -0.33073,-0.13345 z m 1.32292,0 c 0.1819,-0.0734 0.47956,-0.0734 0.66146,0 0.1819,0.0734 0.0331,0.13345 -0.33073,0.13345 -0.3638,0 -0.51263,-0.06 -0.33073,-0.13345 z m 18.80195,-0.006 c 0.191,-0.0764 0.4192,-0.067 0.50712,0.0209 0.0879,0.0879 -0.0683,0.15045 -0.34726,0.13896 -0.30823,-0.0127 -0.37092,-0.0754 -0.15986,-0.15985 z m 10.3053,-0.006 c 0.32912,-0.0633 0.80537,-0.0609 1.05833,0.005 0.25297,0.0662 -0.0163,0.11801 -0.59839,0.11507 -0.58209,-0.003 -0.78906,-0.0571 -0.45994,-0.12041 z m 6.6115,0.0119 c 0.1819,-0.0734 0.47956,-0.0734 0.66146,0 0.1819,0.0734 0.0331,0.13346 -0.33073,0.13346 -0.3638,0 -0.51263,-0.0601 -0.33073,-0.13346 z m 18.53737,-0.006 c 0.19099,-0.0764 0.4192,-0.067 0.50712,0.0209 0.0879,0.0879 -0.0684,0.15045 -0.34727,0.13896 -0.30822,-0.0127 -0.37092,-0.0754 -0.15985,-0.15985 z m 6.73034,-0.009 c 0.40018,-0.0606 1.05502,-0.0606 1.45521,0 0.40018,0.0606 0.0728,0.11023 -0.72761,0.11023 -0.80036,0 -1.12778,-0.0496 -0.7276,-0.11023 z m 10.99674,0.009 c 0.191,-0.0764 0.4192,-0.067 0.50712,0.0209 0.0879,0.0879 -0.0683,0.15045 -0.34726,0.13896 -0.30823,-0.0127 -0.37092,-0.0754 -0.15986,-0.15985 z m 8.99584,0 c 0.19099,-0.0764 0.4192,-0.067 0.50712,0.0209 0.0879,0.0879 -0.0684,0.15045 -0.34727,0.13896 -0.30823,-0.0127 -0.37092,-0.0754 -0.15985,-0.15985 z m 8.05689,-0.009 c 0.40218,-0.0608 0.9975,-0.0592 1.32292,0.004 0.32542,0.0628 -0.004,0.11256 -0.73125,0.11058 -0.7276,-0.002 -0.99385,-0.0534 -0.59167,-0.11419 z m 10.19936,0.009 c 0.19099,-0.0764 0.4192,-0.067 0.50712,0.0209 0.0879,0.0879 -0.0684,0.15045 -0.34727,0.13896 -0.30823,-0.0127 -0.37092,-0.0754 -0.15985,-0.15985 z m 14.40325,-0.002 c 0.25466,-0.0666 0.67138,-0.0666 0.92604,0 0.25467,0.0665 0.0463,0.121 -0.46302,0.121 -0.50932,0 -0.71768,-0.0545 -0.46302,-0.121 z m 6.49883,0.002 c 0.191,-0.0764 0.4192,-0.067 0.50712,0.0209 0.0879,0.0879 -0.0684,0.15045 -0.34727,0.13896 -0.30822,-0.0127 -0.37092,-0.0754 -0.15985,-0.15985 z m 9.77305,-0.0107 c 0.47294,-0.0587 1.24685,-0.0587 1.71979,0 0.47294,0.0587 0.086,0.10671 -0.8599,0.10671 -0.94588,0 -1.33284,-0.048 -0.85989,-0.10671 z M 175.4875,98.107451 c 0.7811,-0.531125 7.06744,-3.620799 10.05417,-4.941528 13.36196,-5.908633 24.4812,-9.162868 36.42934,-10.66167 3.76787,-0.47265 8.28826,-0.702416 7.99208,-0.406229 -0.0642,0.06423 -1.36399,0.374127 -2.88837,0.688667 -1.52438,0.314541 -3.90269,0.872188 -5.28514,1.239216 -1.38244,0.367028 -2.78004,0.725586 -3.10577,0.796796 -0.32572,0.07121 -0.5279,0.233557 -0.44928,0.360771 0.0786,0.127214 -0.0354,0.162858 -0.25338,0.07921 -0.75975,-0.291544 -10.78944,2.910904 -18.15198,5.795869 -4.2705,1.673369 -9.64017,4.183301 -13.26731,6.201501 l -2.02251,1.125363 -4.72436,-0.0041 c -3.29536,-0.0028 -4.60432,-0.08568 -4.32749,-0.273915 z m 81.31177,-3.955368 c 0,-0.945885 0.048,-1.332838 0.10671,-0.859896 0.0587,0.472943 0.0587,1.246849 0,1.719792 -0.0587,0.472943 -0.10671,0.08599 -0.10671,-0.859896 z m -210.693022,-0.0999 c 0,-0.05494 0.208359,-0.2633 0.46302,-0.463021 0.419644,-0.329107 0.429003,-0.319749 0.09989,0.0999 -0.345643,0.44073 -0.562915,0.580888 -0.562915,0.363125 z m 49.543229,-0.611656 c 0.254662,-0.06655 0.671381,-0.06655 0.926042,0 0.254662,0.06655 0.0463,0.121002 -0.463021,0.121002 -0.509323,0 -0.717682,-0.05445 -0.463021,-0.121002 z m 3.852995,-0.262937 c 0.190995,-0.07643 0.419201,-0.06703 0.507118,0.02088 0.0879,0.08792 -0.06835,0.150453 -0.347264,0.138965 -0.308227,-0.0127 -0.37092,-0.07539 -0.159854,-0.159851 z m 2.116668,-0.264584 c 0.19099,-0.07643 0.4192,-0.06703 0.50712,0.02088 0.0879,0.08792 -0.0683,0.150453 -0.34727,0.138964 -0.30822,-0.0127 -0.37092,-0.07539 -0.15985,-0.15985 z m 1.85208,-0.264583 c 0.191,-0.07643 0.4192,-0.06703 0.50712,0.02088 0.0879,0.08792 -0.0684,0.150452 -0.34726,0.138964 -0.30823,-0.0127 -0.37092,-0.07539 -0.15986,-0.159851 z m -56.042056,-0.18374 c 0,-0.05494 0.20836,-0.2633 0.463021,-0.463021 0.419644,-0.329107 0.429002,-0.319749 0.0999,0.0999 -0.345644,0.44073 -0.562916,0.580888 -0.562916,0.363125 z m 83.406366,-1.021855 c 0.18384,-0.392169 0.37785,-0.58617 0.43112,-0.431114 0.0533,0.155056 -0.0971,0.475921 -0.33426,0.713033 -0.39843,0.39843 -0.40577,0.377057 -0.0969,-0.281919 z M 81.284774,90.646354 c 0.648761,-0.691224 1.214308,-1.256771 1.256771,-1.256771 0.198671,0 -0.01138,0.23755 -1.179568,1.333974 l -1.256771,1.179568 z m 175.186116,0.176389 c 0.0127,-0.308224 0.0754,-0.370919 0.15985,-0.159852 0.0764,0.190996 0.067,0.419199 -0.0209,0.507118 -0.0879,0.08792 -0.15045,-0.06835 -0.13896,-0.347266 z m -207.718809,-0.0466 c 0,-0.110517 0.267891,-0.365507 0.595312,-0.566646 0.593199,-0.364409 0.593523,-0.363695 0.09129,0.200938 -0.539244,0.606237 -0.686597,0.684723 -0.686597,0.365708 z m 81.722499,-0.791249 c -0.32911,-0.419644 -0.31975,-0.429003 0.0999,-0.0999 0.25466,0.199719 0.46302,0.408078 0.46302,0.463021 0,0.217761 -0.21727,0.0776 -0.56292,-0.363126 z M 50.868748,89.289688 c 0,-0.05494 0.208359,-0.263301 0.46302,-0.46302 0.419644,-0.329108 0.429003,-0.31975 0.0999,0.09989 -0.345643,0.44073 -0.562915,0.580888 -0.562915,0.363126 z m 61.145312,-1.036617 c -0.33468,-0.557294 -0.32904,-0.562932 0.12656,-0.126558 0.26226,0.251196 0.41989,0.513672 0.35028,0.583279 -0.0696,0.06961 -0.28418,-0.135917 -0.47684,-0.456721 z M 51.823367,87.848323 c -0.07715,-0.124837 0.279109,-0.632794 0.791695,-1.128795 0.538486,-0.521064 0.856125,-0.703225 0.752327,-0.431449 -0.09881,0.258704 -0.4071,0.5921 -0.685096,0.740879 -0.277998,0.14878 -0.440641,0.37537 -0.361432,0.503535 0.07921,0.128164 0.03124,0.302726 -0.106599,0.387916 -0.137839,0.08519 -0.313742,0.05275 -0.390895,-0.07209 z m 213.114193,-0.20058 c 0.0127,-0.308225 0.0754,-0.370919 0.15985,-0.159853 0.0764,0.190997 0.067,0.4192 -0.0209,0.507119 -0.0879,0.08792 -0.15045,-0.06835 -0.13896,-0.347266 z M 84.867706,86.74375 c 0.568389,-0.582083 1.092968,-1.058333 1.165728,-1.058333 0.07276,0 -0.332756,0.47625 -0.901144,1.058333 -0.568389,0.582083 -1.092968,1.058333 -1.165728,1.058333 -0.07276,0 0.332756,-0.47625 0.901144,-1.058333 z m 36.595184,0.877593 c 0.19099,-0.07643 0.4192,-0.06703 0.50712,0.02089 0.0879,0.08792 -0.0683,0.150453 -0.34727,0.138965 -0.30822,-0.01269 -0.37092,-0.07539 -0.15985,-0.159853 z M 130.24375,85.95 c 0,-0.145521 0.12609,-0.264583 0.2802,-0.264583 0.15411,0 0.19455,-0.148829 0.0899,-0.33073 -0.10468,-0.181901 -0.089,-0.238538 0.0349,-0.12586 0.12388,0.112677 0.82758,-0.363319 1.56378,-1.05777 1.10344,-1.040881 1.06117,-0.972307 -0.24069,0.390443 -1.68103,1.759664 -1.72807,1.797459 -1.72807,1.3885 z m 66.41042,-0.633151 c 0,-0.05719 0.18477,-0.17489 0.41061,-0.261553 0.23546,-0.09035 0.34167,-0.046 0.24897,0.103984 -0.15538,0.251409 -0.65958,0.371858 -0.65958,0.157569 z m 68.60275,-1.086641 c 0.002,-0.727604 0.0534,-0.993858 0.11419,-0.591674 0.0608,0.402183 0.0592,0.997495 -0.004,1.322916 -0.0628,0.325421 -0.11257,-0.0036 -0.11059,-0.731242 z m -151.15275,0.561564 c 0,-0.05494 0.20835,-0.263302 0.46302,-0.463021 0.41964,-0.329108 0.429,-0.319749 0.0999,0.0999 -0.34564,0.440729 -0.56291,0.580887 -0.56291,0.363126 z M 88.174998,83.171875 c 0.493654,-0.509323 0.957085,-0.926042 1.029846,-0.926042 0.07276,0 -0.271608,0.416719 -0.765263,0.926042 -0.493654,0.509323 -0.957085,0.926041 -1.029845,0.926041 -0.07276,0 0.271608,-0.416718 0.765262,-0.926041 z m 27.202472,-0.04845 c 0.191,-0.07643 0.4192,-0.06703 0.50712,0.02089 0.0879,0.08792 -0.0684,0.150453 -0.34726,0.138964 -0.30823,-0.01269 -0.37092,-0.07539 -0.15986,-0.159852 z M 93.598957,79.864583 c 1.595765,-1.600729 2.960923,-2.910417 3.033683,-2.910417 0.07276,0 -1.173335,1.309688 -2.7691,2.910417 -1.595766,1.600729 -2.960923,2.910417 -3.033684,2.910417 -0.07276,0 1.173335,-1.309688 2.769101,-2.910417 z m 36.346463,1.653646 c -0.32911,-0.419644 -0.31975,-0.429002 0.0999,-0.0999 0.44073,0.345644 0.58089,0.562916 0.36313,0.562916 -0.0549,0 -0.2633,-0.20836 -0.46302,-0.463021 z M 95.318748,79.996875 c 0.493655,-0.509323 0.957085,-0.926042 1.029846,-0.926042 0.07276,0 -0.271608,0.416719 -0.765262,0.926042 -0.493655,0.509323 -0.957086,0.926041 -1.029846,0.926041 -0.07276,0 0.271608,-0.416718 0.765262,-0.926041 z m 5.027082,0.0324 c 0,-0.05494 0.20836,-0.263302 0.46302,-0.463021 0.41965,-0.329108 0.42901,-0.319749 0.0999,0.0999 -0.34565,0.440729 -0.56292,0.580887 -0.56292,0.363126 z m 1.05833,-0.79375 c 0,-0.05494 0.20836,-0.263302 0.46303,-0.463021 0.41964,-0.329108 0.429,-0.319749 0.0999,0.09989 -0.34564,0.440729 -0.56292,0.580887 -0.56292,0.363126 z m 3.28216,-0.495418 -0.50403,-0.595313 0.59531,0.504029 c 0.32742,0.277215 0.59532,0.545105 0.59532,0.595312 0,0.211734 -0.21294,0.05542 -0.6866,-0.504028 z m 114.93699,0.149989 c 0.19099,-0.07643 0.4192,-0.06703 0.50712,0.02089 0.0879,0.08792 -0.0684,0.150453 -0.34727,0.138965 -0.30823,-0.0127 -0.37092,-0.07539 -0.15985,-0.159853 z M 105.3938,78.387326 c 0.0127,-0.308224 0.0754,-0.370919 0.15985,-0.159852 0.0764,0.190996 0.067,0.419199 -0.0209,0.507118 -0.0879,0.08792 -0.15045,-0.06835 -0.13897,-0.347266 z m -2.9313,0.05445 c 0,-0.05494 0.20836,-0.263302 0.46302,-0.463021 0.41964,-0.329108 0.429,-0.319749 0.0999,0.0999 -0.34565,0.440729 -0.56292,0.580887 -0.56292,0.363126 z m 120.60039,-0.08085 c 0.191,-0.07643 0.4192,-0.06703 0.50712,0.02089 0.0879,0.08792 -0.0684,0.150453 -0.34727,0.138964 -0.30822,-0.0127 -0.37092,-0.07539 -0.15985,-0.159852 z m 2.11667,-0.264583 c 0.19099,-0.07643 0.4192,-0.06703 0.50712,0.02089 0.0879,0.08792 -0.0684,0.150453 -0.34727,0.138965 -0.30823,-0.0127 -0.37092,-0.07539 -0.15985,-0.159853 z m 15.08125,0 c 0.19099,-0.07643 0.4192,-0.06703 0.50712,0.02089 0.0879,0.08792 -0.0684,0.150453 -0.34727,0.138965 -0.30823,-0.0127 -0.37092,-0.07539 -0.15985,-0.159853 z m -12.31463,-0.267197 c 0.25743,-0.06708 0.61462,-0.06267 0.79375,0.0098 0.17913,0.07247 -0.0315,0.127362 -0.46805,0.121969 -0.43657,-0.0054 -0.58313,-0.06469 -0.3257,-0.131773 z m 9.91684,0.0081 c 0.1819,-0.0734 0.47956,-0.0734 0.66146,0 0.1819,0.0734 0.0331,0.133452 -0.33073,0.133452 -0.3638,0 -0.51263,-0.06005 -0.33073,-0.133452 z m -4.75776,-0.281106 c 0.47555,-0.05889 1.18992,-0.05767 1.5875,0.0027 0.39758,0.06037 0.008,0.108551 -0.86463,0.107066 -0.87313,-0.0015 -1.19842,-0.05088 -0.72287,-0.109766 z M 105.12922,76.535243 c 0.0127,-0.308225 0.0754,-0.370919 0.15985,-0.159853 0.0764,0.190996 0.067,0.4192 -0.0209,0.507119 -0.0879,0.08792 -0.15046,-0.06835 -0.13897,-0.347266 z m -5.04797,-1.505928 c 0,-0.04002 0.92273,-0.962756 2.05052,-2.050521 l 2.05052,-1.977753 -1.97775,2.050521 c -1.8369,1.904479 -2.12329,2.171244 -2.12329,1.977753 z m 24.04333,-0.390253 c -0.32911,-0.419644 -0.31975,-0.429002 0.0999,-0.09989 0.44073,0.345644 0.58089,0.562916 0.36312,0.562916 -0.0549,0 -0.2633,-0.208359 -0.46302,-0.463021 z m -21.1521,-4.352214 c 1.93411,-1.996489 2.66502,-2.509884 2.66502,-1.871928 0,0.08843 -0.0831,0.07769 -0.18463,-0.02385 -0.10154,-0.101545 -1.20287,0.801346 -2.4474,2.006424 l -2.26276,2.191052 z m 130.14458,-1.715506 c 0.19099,-0.07643 0.4192,-0.06703 0.50712,0.02089 0.0879,0.08792 -0.0684,0.150453 -0.34727,0.138965 -0.30823,-0.01269 -0.37092,-0.07539 -0.15985,-0.159853 z m 2.62929,-0.259071 c 0.18191,-0.0734 0.47956,-0.0734 0.66146,0 0.1819,0.0734 0.0331,0.133452 -0.33073,0.133452 -0.3638,0 -0.51263,-0.06005 -0.33073,-0.133452 z m 11.39362,-0.0055 c 0.191,-0.07643 0.4192,-0.06703 0.50712,0.02089 0.0879,0.08792 -0.0683,0.150453 -0.34726,0.138964 -0.30823,-0.01269 -0.37092,-0.07539 -0.15986,-0.159852 z m -7.42487,-0.270569 c 0.32743,-0.06306 0.86321,-0.06306 1.19063,0 0.32742,0.06306 0.0595,0.114662 -0.59531,0.114662 -0.65485,0 -0.92274,-0.0516 -0.59532,-0.114662 z m 3.8401,-0.0031 c 0.40218,-0.06082 0.9975,-0.05919 1.32292,0.0036 0.32542,0.0628 -0.004,0.112561 -0.73124,0.110574 -0.72761,-0.002 -0.99386,-0.05337 -0.59168,-0.114185 z"
         id="path26789"
         sodipodi:nodetypes="ssssscsssssssssccccccccccssssssssssssssssssssscssscccccccccccsscssssssssssssssssssssssssssscsssssssscccccscsssscssssssssssssssssssccscsscsccssssssssssssssssssssssscsccccscccsssssssssssssssssssssssssssssscsscscsccssssssssssscsssssssscccccsssssssssssssscsssssssssssssssssscscscccsssssssssscsssssssssssscscccssssssssssssssscsscsscsccccscccsssssssscscccsssssccsccssssscsscsscsssssscsssssssssscscccccsccsccccsccccscccccscsssssccssssccscccssssscscccsssssssscscccsssssscssssssssssssssscscccssssssssssssssssssssscsssscccccccccccsccssccsccccccccccccsccsssssccscsssssssscsccccsccccscccssssscscccsssssssssssssssssssscccccssssssssssssssssssscssccsscssssscccccsssssssssssssssssssssssccsccsssssccscssssssssscssssssssssccccssssssssssssssssssssssssssssssssssscssssscsssssssssssssssssssssssssssssssssssssssssssssssssssssssssssscscccssssssssssssssssssssssssssssssssssssssssscssssssssssssssssssssssssssssssssssssssssssssssssssssscssssssssssscssssssssssssssssssssssss" />
      <path
         style="fill:#1d7abe;stroke-width:0.264583"
         d="m 78.914581,93.508749 c 0,-0.184036 10.294732,-11.262916 10.46574,-11.262916 0.05098,0 0.407551,0.143459 0.792377,0.318797 0.685395,0.312286 0.84642,0.168269 7.885522,-7.052578 l 7.18584,-7.371374 5.48522,7.372928 5.48523,7.372929 -3.25429,0.804128 c -3.45586,0.853937 -4.67689,1.436931 -4.67689,2.233039 0,0.671489 0.489,1.022653 2.08341,1.496139 2.30646,0.684947 2.70876,2.187273 0.84396,3.151603 -1.39545,0.721615 -5.29929,1.714133 -8.962,2.278511 -3.01474,0.464534 -5.276555,0.581893 -13.478389,0.699362 -5.420651,0.07763 -9.85573,0.05938 -9.85573,-0.04057 z M 94.955489,82.092808 c 2.272712,-1.684892 4.296224,-3.126381 4.496691,-3.203307 0.252151,-0.09676 0.364485,0.07272 0.364485,0.5499 0,0.379371 0.128106,0.689765 0.284685,0.689765 0.15657,0 0.98096,-0.535781 1.83198,-1.190625 0.85102,-0.654843 1.64565,-1.190621 1.76584,-1.190617 0.1202,5e-6 0.55759,0.424937 0.97199,0.944295 0.41439,0.519358 0.81432,0.883408 0.88873,0.809 0.18163,-0.181626 -1.05481,-8.632469 -1.26301,-8.632469 -0.0899,0 -2.29307,2.232422 -4.895833,4.960937 -2.60277,2.728516 -5.678739,5.943203 -6.835487,7.14375 -1.156748,1.200547 -2.021975,2.182813 -1.922727,2.182813 0.09925,0 2.039943,-1.378549 4.312656,-3.063442 z M 127.06875,93.51525 c 0,-0.05922 0.63621,-0.30778 1.41381,-0.552363 0.77759,-0.244586 1.75582,-0.717407 2.17383,-1.050716 0.68412,-0.545499 0.72894,-0.674211 0.44885,-1.288942 -0.61893,-1.358399 -2.64074,-1.977393 -10.12191,-3.098906 -4.13696,-0.620179 -6.46191,-1.326253 -6.74088,-2.047174 -0.12261,-0.316838 0.0859,-0.672107 0.69307,-1.180795 0.47765,-0.400182 1.00651,-0.727604 1.17526,-0.727604 0.16874,0 1.94364,-1.994297 3.94421,-4.431771 2.00058,-2.437474 3.72975,-4.46729 3.84259,-4.510703 0.11285,-0.04341 1.88203,1.900299 3.93152,4.31936 l 3.72633,4.398293 -0.67363,1.329344 c -0.37049,0.731139 -0.62068,1.382293 -0.55596,1.447009 0.0647,0.06471 1.07342,-0.913322 2.24157,-2.173416 1.16815,-1.260094 2.23705,-2.247616 2.37535,-2.194494 0.31188,0.119802 9.31955,11.39824 9.32207,11.672107 0.001,0.109141 -3.8677,0.198438 -8.59712,0.198438 -4.72943,0 -8.59896,-0.04845 -8.59896,-0.107667 z"
         id="path26787" />
      <path
         style="fill:#0ba1a5;stroke-width:0.264583"
         d="m 50.375869,139.64275 c -4.434433,-0.50282 -9.055635,-1.97741 -11.671664,-3.72432 -4.252826,-2.83993 -6.356291,-6.92093 -6.356291,-12.33205 0,-7.85955 4.845102,-18.12787 13.826139,-29.302005 2.656306,-3.304956 7.673934,-8.789351 5.688529,-6.217708 -3.427264,4.439245 -8.071329,12.627223 -9.439787,16.643333 -5.079527,14.90728 0.857622,23.76764 17.044911,25.43713 8.655749,0.89272 21.502484,-1.02892 34.506914,-5.1616 l 4.608997,-1.4647 7.297253,0.006 7.29725,0.006 -3.96875,1.82202 c -12.741949,5.84971 -27.03187,10.65883 -38.099997,12.82215 -7.485219,1.46302 -15.65955,2.04078 -20.733504,1.46544 z M 245.44672,120.21354 c 7.83264,-10.78238 11.37584,-18.94608 11.36857,-26.193748 -0.006,-5.852222 -2.12208,-9.782043 -6.83162,-12.686332 -8.17474,-5.041213 -23.45314,-4.903691 -42.3493,0.381187 -10.23178,2.861626 -23.47792,8.098484 -34.74452,13.736244 l -5.89172,2.948186 -3.97532,-0.07298 -3.97533,-0.07297 4.97886,-2.943035 c 21.30817,-12.595375 42.6564,-21.41158 61.33512,-25.329643 8.43308,-1.768929 17.80017,-2.303987 23.76603,-1.357541 2.66181,0.42228 5.51598,1.303079 7.80656,2.409111 9.23661,4.460005 10.81409,14.604459 4.29589,27.626008 -3.40018,6.792633 -8.61811,14.022873 -15.65167,21.687803 l -1.09256,1.19063 z"
         id="path26785" />
      <path
         style="fill:#2c3030;stroke-width:0.264583"
         d="m 203.2477,117.44123 c -1.76549,-0.31189 -3.33993,-1.20342 -3.84291,-2.17607 -0.36644,-0.70863 -0.40833,-1.36719 -0.26491,-4.1646 0.0937,-1.82757 0.24004,-4.05377 0.32521,-4.9471 l 0.15484,-1.62425 h 1.95872 1.95871 l -0.1741,4.42872 c -0.16891,4.29641 -0.15711,4.44572 0.39486,4.99768 0.36948,0.36948 0.89974,0.56897 1.5124,0.56897 2.04326,0 2.43111,-0.77295 2.64375,-5.26874 0.0798,-1.6861 0.20209,-3.44442 0.27186,-3.90737 l 0.12687,-0.84173 1.97579,0.008 1.97579,0.008 v 0.87909 c 0,2.73089 -0.61345,9.04795 -0.93997,9.67936 -0.49785,0.96275 -1.56394,1.76949 -2.73259,2.06783 -1.52055,0.38818 -4.02687,0.52546 -5.34432,0.29272 z M 55.254832,116.20059 c 0.101845,-0.67916 0.257969,-3.56642 0.346941,-6.41615 l 0.161766,-5.18132 h 4.365625 c 3.678103,0 4.500656,0.0738 5.223029,0.46853 1.209395,0.66087 1.742699,1.59855 1.721117,3.02612 -0.02061,1.36343 -0.579398,2.2993 -1.862836,3.11994 -0.455176,0.29104 -0.832178,0.6183 -0.837784,0.72724 -0.0056,0.10894 0.466058,1.25576 1.048141,2.54849 0.582083,1.29272 1.058334,2.48351 1.058334,2.64619 0,0.19271 -0.714616,0.29515 -2.050521,0.29397 l -2.050521,-0.002 -1.205349,-3.53028 -1.205349,-3.53029 1.331306,-0.23821 c 1.037024,-0.18556 1.418492,-0.39505 1.72574,-0.94774 0.359402,-0.6465 0.350448,-0.75813 -0.100817,-1.25677 -0.637585,-0.70452 -3.17019,-0.79964 -3.42764,-0.12873 -0.08833,0.23018 -0.161634,1.86729 -0.162899,3.63802 -0.0013,1.77073 -0.07738,3.84458 -0.169145,4.60857 l -0.166847,1.38906 H 57.03339 55.069657 l 0.185175,-1.23483 z m 13.478209,-1.47715 c 0.106863,-1.49159 0.268534,-4.37886 0.35927,-6.41615 l 0.164979,-3.70417 5.097412,-0.0341 c 2.803578,-0.0188 5.143778,0.0409 5.200444,0.1326 0.05667,0.0917 0.0393,0.73211 -0.03859,1.42317 l -0.141621,1.25647 h -3.140591 -3.140591 v 1.05833 1.05834 h 2.65966 2.659661 l -0.07997,1.38906 -0.07997,1.38906 -2.711979,0.0754 -2.711979,0.0754 v 1.04907 1.04908 h 3.175 c 3.548716,0 3.441237,-0.0744 3.009635,2.08359 l -0.165364,0.82683 H 73.693593 68.53875 Z m 12.557904,2.24896 c -0.0027,-0.25467 0.137395,-3.16547 0.311295,-6.46845 l 0.316182,-6.00543 2.377565,0.0523 2.377562,0.0523 2.204513,3.96876 c 1.212485,2.18281 2.223265,3.90921 2.24618,3.83645 0.02291,-0.0728 0.112851,-1.85869 0.199856,-3.96875 l 0.158192,-3.83646 1.785937,-0.0428 c 1.503834,-0.0361 1.78671,0.0266 1.790825,0.39687 0.0027,0.24183 -0.137954,3.15254 -0.312534,6.46825 l -0.317418,6.02857 -2.366269,-0.0754 -2.366272,-0.0754 -2.18535,-3.77639 c -1.489962,-2.57473 -2.237195,-3.64129 -2.34828,-3.3518 -0.08961,0.23352 -0.162931,1.96266 -0.162931,3.84253 v 3.41795 h -1.852083 c -1.58564,0 -1.852787,-0.0666 -1.85697,-0.46302 z m 18.495481,0.34458 c -0.06514,-0.0651 -0.03393,-1.0474 0.06937,-2.18281 0.103294,-1.13541 0.196274,-3.3443 0.206624,-4.90865 l 0.0188,-2.84427 h -1.852083 -1.852083 v -1.42208 -1.42209 l 5.953126,-0.0134 5.95312,-0.0134 v 1.43552 1.43551 h -1.96816 -1.96816 l -0.14065,1.12448 c -0.0774,0.61846 -0.21609,2.88065 -0.3083,5.02708 l -0.16766,3.90261 h -1.91277 c -1.05202,0 -1.966064,-0.0533 -2.031202,-0.11844 z m 12.465654,-0.11395 c 0,-0.12781 0.51648,-1.16961 1.14772,-2.3151 0.63125,-1.1455 2.12413,-3.94884 3.31751,-6.22965 l 2.16979,-4.14692 2.41075,0.0459 2.41076,0.0459 2.18113,5.95313 c 1.19962,3.27422 2.26798,6.16654 2.37414,6.42737 0.17775,0.43674 0.0195,0.46813 -2.00064,0.39688 l -2.19365,-0.0774 -0.57277,-1.7198 -0.57277,-1.71979 -2.28482,-0.0763 -2.28483,-0.0763 -0.93782,1.86225 -0.93782,1.86227 h -2.11334 c -1.16234,0 -2.11334,-0.10458 -2.11334,-0.23239 z m 9.78959,-6.33417 c 0,-0.53513 -0.83542,-2.95844 -1.0199,-2.95844 -0.19267,0 -1.36135,2.55968 -1.36135,2.98167 0,0.10633 0.53578,0.19333 1.19062,0.19333 0.65484,0 1.19063,-0.0974 1.19063,-0.21656 z m 7.50605,3.58999 c 0.0886,-1.63711 0.23614,-4.53378 0.32776,-6.43705 l 0.16659,-3.46048 4.40032,0.0209 c 4.17978,0.0199 4.45999,0.054 5.59094,0.68236 3.37515,1.87508 3.40909,8.61771 0.0551,10.94204 -1.33122,0.92254 -3.14233,1.2288 -7.26666,1.2288 h -3.4352 z m 7.03809,-0.27233 c 1.66396,-0.84198 2.40598,-3.65912 1.45047,-5.50686 -0.49265,-0.95269 -1.30402,-1.29841 -3.04726,-1.29841 h -1.30569 l -0.004,1.38906 c -0.002,0.76399 -0.0779,2.37133 -0.16865,3.57188 l -0.16503,2.18281 1.29313,-0.004 c 0.71121,-0.002 1.5872,-0.15271 1.94664,-0.33458 z m 10.71283,2.65358 c -0.0983,-0.32742 -1.0588,-3.13859 -2.13449,-6.24706 -1.0757,-3.10846 -1.95582,-5.75377 -1.95582,-5.87847 0,-0.1247 0.9153,-0.20078 2.03399,-0.16908 l 2.03398,0.0576 1.38577,4.45604 c 0.76217,2.45082 1.42606,4.49633 1.47531,4.54558 0.0493,0.0492 1.0226,-1.97524 2.163,-4.49887 l 2.07345,-4.58841 2.10139,0.009 c 1.15576,0.005 2.06657,0.0979 2.02402,0.20644 -0.0425,0.10849 -1.50612,3.01021 -3.25237,6.44826 l -3.175,6.25101 -2.29727,0.002 c -2.15367,0.001 -2.30844,-0.0357 -2.47596,-0.59378 z m 11.39608,-1.32291 c 0.10685,-1.05503 0.26776,-3.94229 0.35758,-6.41615 l 0.16332,-4.49792 h 5.15938 5.15937 l 0.0868,0.75958 c 0.0477,0.41777 0.0167,1.03908 -0.0691,1.38069 -0.1511,0.60205 -0.25125,0.62341 -3.2618,0.69563 l -3.10592,0.0745 -0.0821,0.99219 -0.0821,0.99219 h 2.6618 2.66181 v 1.45521 1.4552 h -2.77813 -2.77812 v 1.05834 1.05833 h 3.175 3.175 v 1.45521 1.45521 h -5.31852 -5.31852 z m 12.55456,1.45521 c -0.003,-0.25467 0.13739,-3.16547 0.31129,-6.46845 l 0.31619,-6.00543 2.37756,0.0523 2.37756,0.0523 2.20452,3.96876 c 1.21248,2.18281 2.22326,3.90921 2.24618,3.83645 0.0229,-0.0728 0.11285,-1.85869 0.19985,-3.96875 l 0.15819,-3.83646 1.78594,-0.0428 c 1.50384,-0.0361 1.78671,0.0266 1.79083,0.39687 0.003,0.24183 -0.13796,3.15254 -0.31254,6.46825 l -0.31742,6.02857 -2.36626,-0.0754 -2.36628,-0.0754 -2.18535,-3.77639 c -1.48996,-2.57473 -2.23719,-3.64129 -2.34828,-3.3518 -0.0896,0.23352 -0.16293,1.96266 -0.16293,3.84253 v 3.41795 h -1.85208 c -1.58564,0 -1.85279,-0.0666 -1.85697,-0.46302 z m 18.49548,0.34458 c -0.0651,-0.0651 -0.0339,-1.0474 0.0694,-2.18281 0.10329,-1.13541 0.19627,-3.3443 0.20663,-4.90865 l 0.0188,-2.84427 h -1.85208 -1.85208 v -1.42067 -1.42067 l 5.95312,-0.014 5.95313,-0.014 v 1.43467 1.43468 h -1.96817 -1.96816 l -0.14064,1.12448 c -0.0774,0.61846 -0.21609,2.88065 -0.30831,5.02708 l -0.16765,3.9026 h -1.91277 c -1.05203,0 -1.96607,-0.0533 -2.03121,-0.11843 z m 24.20918,-1.27063 c 0.0966,-0.76398 0.25029,-3.66558 0.34162,-6.44801 l 0.16605,-5.05894 4.39159,0.0375 c 4.77132,0.0407 5.64377,0.25723 6.53827,1.6224 0.68966,1.05256 0.39172,3.36444 -0.56187,4.35977 -0.41356,0.43167 -0.9691,0.85378 -1.23452,0.93802 -0.68159,0.21633 -0.61839,0.56322 0.57575,3.16021 0.58209,1.26591 1.05834,2.40886 1.05834,2.53989 0,0.13103 -0.93474,0.23824 -2.07719,0.23824 h -2.07718 l -1.06544,-3.10886 c -0.58599,-1.70987 -1.15228,-3.31721 -1.25842,-3.57187 -0.15325,-0.36773 -0.0591,-0.46302 0.45731,-0.46302 1.22727,0 2.31134,-0.54779 2.4896,-1.25802 0.28365,-1.13015 -0.18286,-1.51144 -1.95526,-1.59807 l -1.5951,-0.078 -0.19391,5.0389 -0.19391,5.03891 h -1.99065 -1.99064 z m 13.35649,1.26547 c -0.068,-0.068 -0.0415,-0.99071 0.0588,-2.05052 0.10031,-1.05981 0.26873,-3.90148 0.37426,-6.31483 l 0.19188,-4.3879 5.1292,-0.006 5.1292,-0.006 v 1.41723 1.41722 h -3.175 -3.175 v 1.05833 1.05834 h 2.68045 2.68045 l -0.16399,0.99218 c -0.0902,0.54571 -0.16531,1.20055 -0.16691,1.45521 -0.003,0.40991 -0.30641,0.46302 -2.64875,0.46302 h -2.64583 v 1.05834 1.05833 h 3.20586 c 3.19547,0 3.20534,0.002 3.04632,0.59531 -0.0877,0.32742 -0.16117,0.98227 -0.16315,1.45521 l -0.004,0.8599 h -5.11527 c -2.81341,0 -5.1709,-0.0556 -5.23888,-0.1236 z"
         id="path26783"
         sodipodi:nodetypes="cssscccssscscccssscccscsssssssccccsssscscccccssccsscccccccccccccsscccssscccsssccsscccssscssscssccccccccccccscsccssscccssscccccccsssssssscscccsscccssccscccccssscscsccssccccsscccccscccccccccccccccccssscccssscccscccssscssssssccccccccccccscssscscssssssscssssscccccccsscccccccccccscscccssccscc" />
    </g>
  </g>
</svg>
